<svg width="28" height="28" viewBox="0 0 28 28" fill="none" xmlns="http://www.w3.org/2000/svg">
  <path fill-rule="evenodd" clip-rule="evenodd" d="M13.372 0.00687505C12.5935 0.0485957 11.7725 0.138548 11.2283 0.241757C8.25972 0.804776 5.70806 2.26942 3.5432 4.65294C1.55291 6.84422 0.428299 9.32839 0.0583694 12.3506C-0.0194565 12.9866 -0.0194565 15.0169 0.0583694 15.6529C0.345999 18.0027 1.06941 19.9784 2.2978 21.7691C2.91066 22.6625 3.25198 23.0733 4.06859 23.9002C6.38645 26.2474 9.04386 27.5517 12.3002 27.9402C12.9698 28.0201 14.9416 28.0199 15.609 27.9399C16.8258 27.794 17.8466 27.5572 18.858 27.1862C22.5618 25.8277 25.821 22.5763 27.1786 18.8854C27.7607 17.3029 28 15.8803 28 14.0017C28 12.5216 27.8802 11.5268 27.5549 10.3041C26.7182 7.15966 24.6627 4.32401 21.7838 2.34267C19.9861 1.10552 17.8269 0.314036 15.6556 0.0962232C14.959 0.0264097 13.8316 -0.0177294 13.372 0.00687505ZM15.3526 2.09598C18.2549 2.41895 20.5735 3.5262 22.6186 5.56581C24.5859 7.52799 25.6964 9.78886 26.0312 12.5133C26.1052 13.1153 26.1048 14.8926 26.0306 15.4901C25.6864 18.2617 24.6047 20.4504 22.5764 22.4797C21.0796 23.9772 19.284 25.027 17.3099 25.5588C14.8396 26.2243 11.8674 26.0932 9.59726 25.2185C7.98072 24.5956 6.66965 23.7367 5.40095 22.4694C4.29056 21.3603 3.44901 20.191 2.92502 19.0294C2.17197 17.36 1.86551 15.8977 1.86645 13.9785C1.8677 11.4398 2.48034 9.39481 3.8476 7.36529C4.43498 6.49348 5.59375 5.25172 6.44042 4.58675C8.25022 3.16536 10.2182 2.35811 12.5099 2.097C13.2532 2.0123 14.5965 2.01179 15.3526 2.09598ZM9.52735 7.31869C8.55607 7.57208 7.93593 8.4251 7.93887 9.50365C7.94064 10.1452 8.1359 10.669 8.5206 11.0641C8.97554 11.5313 9.49785 11.7459 10.1798 11.7459C11.2433 11.7459 12.0521 11.1515 12.3586 10.1447C12.4513 9.8403 12.4508 9.14593 12.3576 8.83556C12.193 8.28696 11.8212 7.79919 11.3639 7.53166C10.8855 7.25185 10.1227 7.16338 9.52735 7.31869ZM17.1701 7.31869C16.5942 7.46896 16.1728 7.8105 15.8323 8.40296C15.5735 8.85347 15.5046 9.66183 15.6777 10.2178C15.9691 11.1538 16.7989 11.7459 17.819 11.7459C18.493 11.7459 18.9789 11.5554 19.4266 11.1157C20.3037 10.2542 20.3086 8.75519 19.4372 7.8744C19.292 7.72766 19.0737 7.55766 18.9523 7.49673C18.4383 7.23892 17.7424 7.16943 17.1701 7.31869ZM19.9049 13.9668C19.7973 15.6891 18.9386 16.9282 17.2729 17.7645C15.5416 18.6338 13.1982 18.7688 11.2283 18.1128C10.7195 17.9434 9.85264 17.4966 9.48523 17.2144C9.33703 17.1006 9.06846 16.8501 8.88844 16.6576C8.26793 15.9945 7.84972 14.9392 7.84967 14.0366C7.84967 13.8354 7.83173 13.7457 7.79142 13.7452C7.71429 13.7443 5.68653 13.9909 5.66929 14.0033C5.63774 14.026 5.75765 15.2167 5.82471 15.547C6.09015 16.8539 6.80485 18.1268 7.75139 18.9784C9.4753 20.5294 11.3916 21.2342 13.8849 21.2342C16.1728 21.2342 18.0584 20.5898 19.5203 19.3081C20.5868 18.3732 21.3505 17.2208 21.7579 15.9319C21.9808 15.2266 22.1838 13.6537 22.052 13.6522C22.0198 13.6518 21.5636 13.6207 21.0381 13.5831C20.5127 13.5455 20.0491 13.5144 20.008 13.514C19.9463 13.5135 19.9282 13.5929 19.9049 13.9668Z" fill="black"/>
</svg>
